PathFileType	4	(X/Y/Z)	C:/Users/opensim2020/Desktop/walking_exp_matlab/subject02_walking06_straight_03.trc																																																																																																																									
DataRate	CameraRate	NumFrames	NumMarkers	Units	OrigDataRate	OrigDataStartFrame	OrigNumFrames																																																																																																																					
100	100	8	41	mm	100	2146	223																																																																																																																					
Frame#	Time	LFHD			RFHD			LBHD			RBHD			C7			T10			CLAV			STRN			RBAK			LSHO			LUPA			LELB			LFRM			LWRA			LWRB			LFIN			RSHO			RUPA			RELB			RFRM			RWRA			RWRB			RFIN			LASI			RASI			LPSI			RPSI			LTHI			LKNE			LTIB			LANK			LHEE			LTOE			RTHI			RKNE			RTIB			RANK			RHEE			RTOE			*39			*40		
		X1	Y1	Z1	X2	Y2	Z2	X3	Y3	Z3	X4	Y4	Z4	X5	Y5	Z5	X6	Y6	Z6	X7	Y7	Z7	X8	Y8	Z8	X9	Y9	Z9	X10	Y10	Z10	X11	Y11	Z11	X12	Y12	Z12	X13	Y13	Z13	X14	Y14	Z14	X15	Y15	Z15	X16	Y16	Z16	X17	Y17	Z17	X18	Y18	Z18	X19	Y19	Z19	X20	Y20	Z20	X21	Y21	Z21	X22	Y22	Z22	X23	Y23	Z23	X24	Y24	Z24	X25	Y25	Z25	X26	Y26	Z26	X27	Y27	Z27	X28	Y28	Z28	X29	Y29	Z29	X30	Y30	Z30	X31	Y31	Z31	X32	Y32	Z32	X33	Y33	Z33	X34	Y34	Z34	X35	Y35	Z35	X36	Y36	Z36	X37	Y37	Z37	X38	Y38	Z38	X39	Y39	Z39	X40	Y40	Z40	X41	Y41	Z41
																																																																																																																												
140	1.39	441.85318	1732.98096	1322.58557	434.35635	1712.63269	1465.22327	321.41888	1643.4834	1305.0199	301.96838	1620.19336	1445.54834	274.3241	1504.29785	1371.35962	220.073	1233.03589	1383.0835	415.47647	1439.6134	1368.63696	466.5116	1266.0896	1376.95935	212.9532	1331.98999	1431.11096	358.13342	1485.34937	1197.54822	405.22144	1298.95532	1102.63904	469.61911	1171.22717	1080.03149	568.69501	1079.65173	1084.76672	688.09967	1034.71423	1135.72986	659.32678	999.36066	1102.29163	719.79834	974.40839	1102.75085	339.75455	1470.73511	1561.14661	272.91141	1292.68042	1639.55566	260.37537	1148.24756	1661.8739	260.53436	1029.46094	1689.58203	280.28479	893.31628	1679.85339	232.36684	903.46332	1708.61157	250.52429	832.05176	1714.19299	428.17941	964.50769	1240.7229	459.25232	958.05066	1494.09045	230.82582	1014.30487	1347.40698	238.84927	1012.75507	1461.76379	300.67615	662.11853	1214.88623	228.70773	471.96655	1256.43213	121.13793	308.9212	1270.03589	67.33451	90.3408	1315.99707	29.23464	71.80309	1369.57043	215.40927	32.69111	1299.37097	455.55515	662.83557	1578.48633	531.31085	470.93222	1531.83398	560.03992	286.33774	1536.59473	622.69092	101.77899	1503.17383	618.27747	41.46535	1443.86694	784.1059	101.73418	1523.51062	327.06754	1784.70447	1405.64026	2845.97607	1033.99353	-3356.97681
141	1.4	451.83862	1732.03992	1323.30457	444.56754	1711.83203	1465.86389	331.802	1641.94482	1305.96313	312.3764	1618.69739	1446.21899	285.13007	1503.04639	1372.32068	231.14206	1231.71387	1384.37927	426.35596	1438.48328	1369.63745	477.57367	1264.99939	1377.80139	223.9072	1330.41675	1431.8175	368.84216	1483.8573	1198.40881	414.46091	1296.64258	1104.02551	477.02832	1168.09753	1081.2981	575.59125	1075.84253	1086.18152	695.13568	1030.6637	1136.70996	665.92395	995.2467	1103.61719	726.39795	969.92657	1103.90369	350.41623	1469.5791	1562.10742	282.73077	1291.8728	1640.22205	269.65723	1147.36389	1662.57886	269.74292	1028.71765	1690.58972	289.49384	892.58569	1681.05933	241.49178	902.7627	1709.54956	259.52948	831.3703	1715.30237	438.87958	963.33221	1241.19873	471.38287	957.35468	1494.47876	242.12935	1012.85974	1348.95801	250.43199	1011.63672	1463.01355	309.77411	661.5094	1215.25769	236.57967	471.84985	1256.50562	126.28892	310.65134	1270.05005	68.61375	92.98062	1315.64026	29.90322	75.33525	1369.04932	215.60973	32.68328	1299.26306	471.37634	662.83453	1579.15649	543.5119	469.67615	1531.52661	569.29895	284.68689	1535.53088	627.80646	98.66215	1500.09875	622.64606	38.42586	1440.65186	788.99683	96.19195	1520.62927	336.76605	1783.24487	1406.21448	NaN	NaN	NaN
142	1.41	461.96857	1731.23547	1324.08569	454.83539	1711.01941	1466.64111	342.18375	1640.44641	1307.00635	323.25287	1617.3291	1447.60095	296.83176	1501.60217	1373.26794	242.41476	1230.38086	1385.76807	437.25134	1437.3446	1370.64978	488.77728	1263.94678	1378.79578	235.0968	1329.04346	1433.23792	379.61652	1482.47717	1199.35034	423.52496	1294.31653	1105.53467	484.58771	1165.10522	1083.1178	582.2323	1072.1438	1087.6532	701.65814	1026.10547	1137.83594	672.16522	990.75128	1105.00696	732.32257	965.17065	1105.17249	361.22928	1468.43823	1563.14063	293.00452	1291.24353	1641.2395	279.58823	1146.73242	1663.8363	279.32953	1027.91797	1691.68335	299.12683	891.86786	1682.40894	251.07765	902.02612	1710.64746	269.03964	830.69458	1716.60181	449.88647	962.06671	1241.95801	483.89975	956.92517	1495.22314	253.62012	1011.39539	1350.54346	262.17859	1010.35901	1464.30627	319.21533	660.95734	1215.79224	244.84958	471.81607	1256.54077	131.66774	312.66684	1270.21436	69.95838	96.00195	1315.31653	31.45742	79.36091	1368.87671	215.81734	32.56491	1299.1825	487.58743	663.18799	1580.17395	555.52295	468.39365	1531.55103	577.54419	282.47757	1534.37964	631.9231	95.64555	1497.68787	625.49115	35.9968	1438.11682	792.62402	90.09497	1517.83118	346.59427	1781.99561	1407.0708	2845.12378	1034.10693	-3360.34912
143	1.42	471.90842	1730.32739	1324.84375	465.16479	1710.25244	1467.44348	352.51102	1638.87244	1308.08655	333.85037	1615.70056	1448.45288	306.86557	1500.56824	1374.61951	253.94109	1228.89233	1387.24573	448.21399	1436.23376	1371.75781	500.10614	1262.92493	1379.67932	246.23839	1327.45178	1434.27368	390.32849	1480.95471	1200.36255	431.98334	1292.08899	1106.8175	491.80365	1161.96228	1084.83179	588.3476	1067.72217	1089.56885	707.65155	1021.05756	1138.9679	677.76984	985.85004	1106.70178	737.61548	959.65967	1106.43054	372.22452	1467.34485	1564.23376	303.11298	1290.3822	1641.92358	289.39871	1145.83923	1664.72632	289.25259	1027.16211	1692.81787	309.25903	891.09106	1683.72986	260.77374	901.17017	1711.5011	279.17856	830.03931	1717.9408	461.50058	960.86719	1242.53748	496.71402	956.60864	1496.05676	265.7049	1009.83826	1352.24524	274.16745	1009.05634	1465.71057	328.98816	660.2876	1216.11829	253.49759	471.85855	1256.51306	137.27516	315.00076	1270.43176	71.61392	99.21371	1314.9176	32.69786	83.48938	1368.427	215.52232	32.57924	1298.52551	503.14914	662.9494	1580.42371	567.06268	466.97662	1531.55774	585.10803	280.03333	1533.46619	634.99432	92.34396	1495.75183	626.67682	33.09388	1435.95117	795.42908	83.72529	1515.2157	356.44022	1780.59021	1408.0127	2845.14038	1034.03369	-3360.39185
144	1.43	481.65475	1729.13159	1325.56299	475.54297	1709.42578	1468.28809	362.89029	1637.24084	1309.28821	344.63379	1614.10425	1449.66492	317.58997	1499.25696	1375.94617	265.49451	1227.27527	1388.76843	459.177	1435.11597	1372.87854	511.57391	1261.94531	1380.60522	257.74567	1325.84045	1435.60229	400.98355	1479.44751	1201.50281	440.94647	1289.85437	1108.60852	498.81299	1158.9906	1086.78003	594.11877	1063.6886	1090.91711	713.10455	1015.52637	1140.22668	682.69257	980.54022	1108.28442	741.97888	953.39679	1107.68884	383.17032	1466.18115	1565.14771	313.63638	1289.60242	1642.87659	299.72986	1145.0188	1665.94775	299.4646	1026.26453	1693.98486	319.87219	890.37042	1685.22522	271.15903	900.32263	1712.5802	289.80774	829.33942	1719.40222	473.41891	959.73834	1243.43628	509.76175	956.37	1497.15259	278.00299	1008.28784	1354.03674	286.53696	1007.64014	1467.17139	339.15799	659.68103	1216.48035	262.49182	471.97891	1256.43091	143.2291	317.44934	1270.65222	73.37035	102.73268	1314.47705	34.79487	87.97177	1368.02319	215.71355	32.55521	1298.27771	518.28125	662.62073	1580.64417	578.22095	465.42819	1531.90125	592.11511	277.42917	1532.77856	637.45618	89.06718	1494.3147	626.71692	30.49037	1435.31885	797.90503	77.12605	1512.50488	366.29449	1779.09753	1408.98035	2845.77319	1034.00757	-3356.95435
145	1.44	491.6037	1728.17432	1326.28577	485.71957	1708.52466	1468.93762	373.19614	1635.61316	1310.5603	355.64722	1612.66431	1451.27283	328.4668	1497.83032	1377.32141	276.87436	1225.73792	1390.53479	470.24542	1434.04175	1374.01489	523.17212	1261.12317	1381.74573	269.18118	1324.39966	1437.29541	411.53128	1477.97009	1202.74609	449.79929	1287.75415	1110.46338	505.45993	1156.01147	1088.58337	599.54968	1059.37476	1092.60974	717.99988	1009.40765	1141.53638	686.82654	975.13782	1109.20825	745.63794	946.86993	1109.39099	394.36728	1465.12598	1566.3689	324.66492	1288.849	1644.27515	310.5918	1144.28369	1667.4751	310.1767	1025.38428	1695.24756	330.94943	889.58862	1686.73474	282.08725	899.4563	1713.7616	300.97876	828.59448	1720.91492	485.84528	958.56421	1244.41943	522.82159	956.15149	1498.28491	290.6098	1006.72675	1355.91357	299.12366	1006.20081	1468.89343	349.55911	658.98633	1216.75793	271.98215	472.12433	1256.3031	149.55594	320.16965	1270.8374	75.36059	106.71072	1313.91418	37.02972	93.03309	1367.75781	215.93527	32.50642	1297.98962	532.7691	662.10303	1580.91138	588.63434	463.57596	1532.75537	599.25427	274.98807	1531.53662	641.80328	87.18667	1492.80383	628.72913	32.77596	1434.59119	802.74585	67.89316	1510.75696	376.23502	1777.67285	1410.05188	2845.12231	1034.03076	-3360.4541
146	1.45	501.63019	1727.92383	1326.97656	496.31277	1708.31519	1469.80774	383.68848	1634.4176	1311.9325	366.60013	1611.42371	1452.39075	339.10013	1496.58191	1378.82849	288.6557	1225.06274	1392.45361	481.3819	1433.26135	1375.09998	534.59082	1260.66833	1382.71423	280.74454	1323.37012	1438.92761	421.95078	1476.69775	1203.93433	458.40683	1285.68176	1112.2572	512.30371	1153.12756	1090.96948	604.67419	1054.89954	1094.37109	722.39728	1002.92529	1142.81323	690.8009	969.2439	1110.83508	749.18164	940.02313	1110.29944	405.88913	1464.37842	1568.05676	335.57843	1287.89966	1645.36169	321.60605	1143.43213	1668.92358	321.62225	1024.70618	1697.01501	342.53369	888.83856	1688.33875	293.40311	898.4707	1714.93909	312.70239	827.8399	1722.5249	499.12241	957.62891	1246.03711	535.37482	955.97272	1499.50659	303.01068	1005.336	1357.86707	311.98392	1004.96741	1470.69495	360.65842	658.43311	1217.27246	282.15186	472.43643	1256.28284	156.44191	323.09512	1270.97852	77.91264	111.05287	1312.91101	39.67696	98.8765	1366.6333	216.18025	32.49089	1297.71021	545.44678	662.41473	1581.90027	598.85211	462.89963	1534.0293	608.52728	274.29028	1529.56079	649.90222	88.31658	1495.42163	633.40491	35.43488	1436.94116	810.95837	60.4671	1511.09546	386.28458	1776.67639	1411.23914	2845.14819	1034.01416	-3360.36841
147	1.46	511.62729	1727.83301	1328.08862	507.0293	1708.76563	1470.84741	394.06305	1633.85645	1313.2644	377.58029	1611.2439	1454.34949	349.55075	1495.91492	1380.35327	301.17932	1224.49707	1394.09497	492.43445	1432.99646	1376.24426	545.87756	1260.67065	1383.85681	292.04764	1322.98743	1440.38306	432.25406	1475.80481	1204.94019	467.41409	1283.73816	1114.47852	518.86896	1150.4176	1093.34705	609.44647	1050.55139	1096.32813	726.12842	996.01508	1144.1908	693.65723	963.11865	1112.00684	751.49255	932.75098	1111.5885	417.13168	1463.55566	1569.37427	347.0838	1287.11279	1646.90454	332.90405	1142.41821	1670.15955	333.12009	1023.84332	1698.46399	354.53955	888.10016	1689.89954	305.13132	897.43384	1716.12146	324.86816	827.19312	1724.08777	511.77005	956.35913	1246.95557	547.82153	955.95026	1500.94409	315.33243	1004.33698	1359.71033	325.13626	1004.71667	1472.53479	372.41052	658.34399	1217.99353	293.08264	472.91998	1256.11426	164.0563	326.53107	1271.03955	80.93901	116.15559	1311.73157	43.29426	105.16659	1365.37366	216.55344	32.40598	1297.3999	556.02704	663.07959	1583.52539	610.18115	463.96216	1535.90466	619.45172	276.04501	1533.9856	657.56952	88.06024	1498.29492	635.13544	37.49785	1439.56738	817.03522	55.99588	1509.27405	396.37924	1776.38867	1412.45642	2845.95923	1034.02844	-3357.11548
